<mxfile host="Electron" modified="2023-04-16T13:45:22.853Z" agent="Mozilla/5.0 (Macintosh; Intel Mac OS X 10_15_7) AppleWebKit/537.36 (KHTML, like Gecko) draw.io/21.1.2 Chrome/106.0.5249.199 Electron/21.4.3 Safari/537.36" etag="BCMsGHm_BGTsIPtdY08o" version="21.1.2" type="device">
  <diagram id="C5RBs43oDa-KdzZeNtuy" name="Page-1">
    <mxGraphModel dx="1026" dy="671" grid="1" gridSize="10" guides="1" tooltips="1" connect="1" arrows="1" fold="1" page="1" pageScale="1" pageWidth="827" pageHeight="1169" math="0" shadow="0">
      <root>
        <mxCell id="WIyWlLk6GJQsqaUBKTNV-0" />
        <mxCell id="WIyWlLk6GJQsqaUBKTNV-1" parent="WIyWlLk6GJQsqaUBKTNV-0" />
        <mxCell id="bJsD-voW9cIm177x8Zfq-0" value="TimerWheel" style="swimlane;whiteSpace=wrap;html=1;" vertex="1" parent="WIyWlLk6GJQsqaUBKTNV-1">
          <mxGeometry x="110" y="80" width="200" height="600" as="geometry" />
        </mxCell>
        <mxCell id="bJsD-voW9cIm177x8Zfq-1" value="slot-0" style="rounded=0;whiteSpace=wrap;html=1;" vertex="1" parent="bJsD-voW9cIm177x8Zfq-0">
          <mxGeometry x="40" y="180" width="120" height="60" as="geometry" />
        </mxCell>
        <mxCell id="bJsD-voW9cIm177x8Zfq-2" value="slot-1" style="rounded=0;whiteSpace=wrap;html=1;" vertex="1" parent="bJsD-voW9cIm177x8Zfq-0">
          <mxGeometry x="40" y="240" width="120" height="60" as="geometry" />
        </mxCell>
        <mxCell id="bJsD-voW9cIm177x8Zfq-4" value="slot-2" style="rounded=0;whiteSpace=wrap;html=1;" vertex="1" parent="bJsD-voW9cIm177x8Zfq-0">
          <mxGeometry x="40" y="300" width="120" height="60" as="geometry" />
        </mxCell>
        <mxCell id="bJsD-voW9cIm177x8Zfq-6" value="TimerLog" style="swimlane;whiteSpace=wrap;html=1;" vertex="1" parent="WIyWlLk6GJQsqaUBKTNV-1">
          <mxGeometry x="310" y="80" width="260" height="600" as="geometry" />
        </mxCell>
        <mxCell id="bJsD-voW9cIm177x8Zfq-7" value="timerLog-0-slot-0" style="rounded=0;whiteSpace=wrap;html=1;" vertex="1" parent="bJsD-voW9cIm177x8Zfq-6">
          <mxGeometry x="40" y="40" width="120" height="60" as="geometry" />
        </mxCell>
        <mxCell id="bJsD-voW9cIm177x8Zfq-22" style="edgeStyle=orthogonalEdgeStyle;rounded=0;orthogonalLoop=1;jettySize=auto;html=1;exitX=1;exitY=0.5;exitDx=0;exitDy=0;entryX=1;entryY=0.5;entryDx=0;entryDy=0;" edge="1" parent="bJsD-voW9cIm177x8Zfq-6" source="bJsD-voW9cIm177x8Zfq-8" target="bJsD-voW9cIm177x8Zfq-7">
          <mxGeometry relative="1" as="geometry" />
        </mxCell>
        <mxCell id="bJsD-voW9cIm177x8Zfq-8" value="timerLog-1-slot-0" style="rounded=0;whiteSpace=wrap;html=1;" vertex="1" parent="bJsD-voW9cIm177x8Zfq-6">
          <mxGeometry x="40" y="100" width="120" height="60" as="geometry" />
        </mxCell>
        <mxCell id="bJsD-voW9cIm177x8Zfq-9" value="timerLog-2-slot-2" style="rounded=0;whiteSpace=wrap;html=1;" vertex="1" parent="bJsD-voW9cIm177x8Zfq-6">
          <mxGeometry x="40" y="160" width="120" height="60" as="geometry" />
        </mxCell>
        <mxCell id="bJsD-voW9cIm177x8Zfq-11" value="timerLog-3-slot-1" style="rounded=0;whiteSpace=wrap;html=1;" vertex="1" parent="bJsD-voW9cIm177x8Zfq-6">
          <mxGeometry x="40" y="220" width="120" height="60" as="geometry" />
        </mxCell>
        <mxCell id="bJsD-voW9cIm177x8Zfq-28" style="edgeStyle=orthogonalEdgeStyle;rounded=0;orthogonalLoop=1;jettySize=auto;html=1;exitX=1;exitY=0.25;exitDx=0;exitDy=0;entryX=1;entryY=0.5;entryDx=0;entryDy=0;fillColor=#e1d5e7;strokeColor=#9673a6;strokeWidth=2;" edge="1" parent="bJsD-voW9cIm177x8Zfq-6" source="bJsD-voW9cIm177x8Zfq-12" target="bJsD-voW9cIm177x8Zfq-9">
          <mxGeometry relative="1" as="geometry">
            <Array as="points">
              <mxPoint x="230" y="295" />
              <mxPoint x="230" y="190" />
            </Array>
          </mxGeometry>
        </mxCell>
        <mxCell id="bJsD-voW9cIm177x8Zfq-12" value="timerLog-4-slot-2" style="rounded=0;whiteSpace=wrap;html=1;" vertex="1" parent="bJsD-voW9cIm177x8Zfq-6">
          <mxGeometry x="40" y="280" width="120" height="60" as="geometry" />
        </mxCell>
        <mxCell id="bJsD-voW9cIm177x8Zfq-27" style="edgeStyle=orthogonalEdgeStyle;rounded=0;orthogonalLoop=1;jettySize=auto;html=1;exitX=1;exitY=0.5;exitDx=0;exitDy=0;entryX=1;entryY=0.5;entryDx=0;entryDy=0;fillColor=#e1d5e7;strokeColor=#9673a6;strokeWidth=2;" edge="1" parent="bJsD-voW9cIm177x8Zfq-6" source="bJsD-voW9cIm177x8Zfq-13" target="bJsD-voW9cIm177x8Zfq-12">
          <mxGeometry relative="1" as="geometry">
            <Array as="points">
              <mxPoint x="230" y="370" />
              <mxPoint x="230" y="310" />
            </Array>
          </mxGeometry>
        </mxCell>
        <mxCell id="bJsD-voW9cIm177x8Zfq-13" value="timerLog-5-slot-2" style="rounded=0;whiteSpace=wrap;html=1;" vertex="1" parent="bJsD-voW9cIm177x8Zfq-6">
          <mxGeometry x="40" y="340" width="120" height="60" as="geometry" />
        </mxCell>
        <mxCell id="bJsD-voW9cIm177x8Zfq-26" style="edgeStyle=orthogonalEdgeStyle;rounded=0;orthogonalLoop=1;jettySize=auto;html=1;exitX=1;exitY=0.25;exitDx=0;exitDy=0;entryX=1;entryY=0.5;entryDx=0;entryDy=0;fillColor=#f8cecc;strokeColor=#b85450;strokeWidth=3;" edge="1" parent="bJsD-voW9cIm177x8Zfq-6" source="bJsD-voW9cIm177x8Zfq-14" target="bJsD-voW9cIm177x8Zfq-11">
          <mxGeometry relative="1" as="geometry">
            <Array as="points">
              <mxPoint x="210" y="415" />
              <mxPoint x="210" y="250" />
            </Array>
          </mxGeometry>
        </mxCell>
        <mxCell id="bJsD-voW9cIm177x8Zfq-14" value="timerLog-6-slot-1" style="rounded=0;whiteSpace=wrap;html=1;" vertex="1" parent="bJsD-voW9cIm177x8Zfq-6">
          <mxGeometry x="40" y="400" width="120" height="60" as="geometry" />
        </mxCell>
        <mxCell id="bJsD-voW9cIm177x8Zfq-25" style="edgeStyle=orthogonalEdgeStyle;rounded=0;orthogonalLoop=1;jettySize=auto;html=1;exitX=1;exitY=0.75;exitDx=0;exitDy=0;entryX=1;entryY=0.5;entryDx=0;entryDy=0;fillColor=#f8cecc;strokeColor=#b85450;strokeWidth=3;" edge="1" parent="bJsD-voW9cIm177x8Zfq-6" source="bJsD-voW9cIm177x8Zfq-15" target="bJsD-voW9cIm177x8Zfq-14">
          <mxGeometry relative="1" as="geometry">
            <Array as="points">
              <mxPoint x="210" y="505" />
              <mxPoint x="210" y="430" />
            </Array>
          </mxGeometry>
        </mxCell>
        <mxCell id="bJsD-voW9cIm177x8Zfq-15" value="timerLog-7-slot-1" style="rounded=0;whiteSpace=wrap;html=1;" vertex="1" parent="bJsD-voW9cIm177x8Zfq-6">
          <mxGeometry x="40" y="460" width="120" height="60" as="geometry" />
        </mxCell>
        <mxCell id="bJsD-voW9cIm177x8Zfq-21" style="edgeStyle=orthogonalEdgeStyle;rounded=0;orthogonalLoop=1;jettySize=auto;html=1;exitX=1;exitY=0.5;exitDx=0;exitDy=0;entryX=1;entryY=0.75;entryDx=0;entryDy=0;" edge="1" parent="bJsD-voW9cIm177x8Zfq-6" source="bJsD-voW9cIm177x8Zfq-16" target="bJsD-voW9cIm177x8Zfq-8">
          <mxGeometry relative="1" as="geometry" />
        </mxCell>
        <mxCell id="bJsD-voW9cIm177x8Zfq-16" value="timerLog-8-slot-0" style="rounded=0;whiteSpace=wrap;html=1;" vertex="1" parent="bJsD-voW9cIm177x8Zfq-6">
          <mxGeometry x="40" y="520" width="120" height="60" as="geometry" />
        </mxCell>
        <mxCell id="bJsD-voW9cIm177x8Zfq-10" value="" style="rounded=0;orthogonalLoop=1;jettySize=auto;html=1;entryX=0;entryY=0.5;entryDx=0;entryDy=0;exitX=1;exitY=0.5;exitDx=0;exitDy=0;" edge="1" parent="WIyWlLk6GJQsqaUBKTNV-1" source="bJsD-voW9cIm177x8Zfq-1" target="bJsD-voW9cIm177x8Zfq-16">
          <mxGeometry relative="1" as="geometry" />
        </mxCell>
        <mxCell id="bJsD-voW9cIm177x8Zfq-17" style="rounded=0;orthogonalLoop=1;jettySize=auto;html=1;exitX=1;exitY=0.5;exitDx=0;exitDy=0;entryX=0;entryY=0.5;entryDx=0;entryDy=0;fillColor=#f8cecc;strokeColor=#b85450;strokeWidth=3;" edge="1" parent="WIyWlLk6GJQsqaUBKTNV-1" source="bJsD-voW9cIm177x8Zfq-2" target="bJsD-voW9cIm177x8Zfq-15">
          <mxGeometry relative="1" as="geometry" />
        </mxCell>
        <mxCell id="bJsD-voW9cIm177x8Zfq-18" style="edgeStyle=none;rounded=0;orthogonalLoop=1;jettySize=auto;html=1;exitX=1;exitY=0.5;exitDx=0;exitDy=0;entryX=0;entryY=0.5;entryDx=0;entryDy=0;fillColor=#e1d5e7;strokeColor=#9673a6;strokeWidth=2;" edge="1" parent="WIyWlLk6GJQsqaUBKTNV-1" source="bJsD-voW9cIm177x8Zfq-4" target="bJsD-voW9cIm177x8Zfq-13">
          <mxGeometry relative="1" as="geometry" />
        </mxCell>
      </root>
    </mxGraphModel>
  </diagram>
</mxfile>
